<svg width="100" height="96" viewBox="0 0 100 96" fill="none" xmlns="http://www.w3.org/2000/svg">
<path d="M54.8277 3.00219L66.1064 25.8558C66.8907 27.4452 68.4072 28.5466 70.1614 28.8011L95.3825 32.4661C99.8006 33.1086 101.563 38.5362 98.3675 41.6505L80.1176 59.4394C78.8494 60.6764 78.2695 62.4599 78.5699 64.2058L82.8773 89.3247C83.6324 93.7239 79.0142 97.0781 75.0634 95.0026L52.506 83.144C50.9374 82.3201 49.0621 82.3201 47.4935 83.144L24.9362 95.0026C20.9854 97.0802 16.3671 93.7239 17.1222 89.3247L21.4297 64.2058C21.7301 62.4599 21.1502 60.6764 19.8819 59.4394L1.63202 41.6505C-1.56364 38.5341 0.198979 33.1065 4.617 32.4661L29.8381 28.8011C31.5924 28.5466 33.1089 27.4452 33.8932 25.8558L45.1719 3.00219C47.1452 -1.00073 52.8523 -1.00073 54.8277 3.00219Z" fill="#EDD819"/>
</svg>
