<svg width="70" height="68" viewBox="0 0 70 68" fill="none" xmlns="http://www.w3.org/2000/svg">
<path d="M38.3804 2.62985L46.2754 18.6274C46.8244 19.74 47.886 20.511 49.114 20.6891L66.7688 23.2546C69.8614 23.7043 71.0952 27.5037 68.8582 29.6837L56.0833 42.1359C55.1955 43.0018 54.7896 44.2502 54.9999 45.4724L58.0151 63.0556C58.5437 66.1351 55.3109 68.483 52.5453 67.0302L36.7552 58.7291C35.6572 58.1524 34.3445 58.1524 33.2464 58.7291L17.4563 67.0302C14.6907 68.4845 11.4579 66.1351 11.9865 63.0556L15.0018 45.4724C15.212 44.2502 14.8061 43.0018 13.9183 42.1359L1.14339 29.6837C-1.09357 27.5022 0.140262 23.7029 3.23288 23.2546L20.8877 20.6891C22.1156 20.511 23.1772 19.74 23.7262 18.6274L31.6213 2.62985C33.0026 -0.172191 36.9976 -0.172191 38.3804 2.62985Z" fill="#EDD819"/>
</svg>
