<svg width="126" height="150" viewBox="0 0 126 150" fill="none" xmlns="http://www.w3.org/2000/svg">
<path d="M1.3082 149.977C35.6348 138.675 85.416 112.355 120.033 88.8422C122.939 86.8641 125.208 85.0312 125.208 81.8344C125.208 76.2937 114.858 68.8453 109.852 65.8688C82.6035 93.7266 28.3832 135.473 1.3082 149.977ZM33.1645 126.319C54.3332 111.914 85.0926 84.8156 95.4941 70.0922C97.9598 66.6234 99.7645 64.6219 99.7645 60.9844C99.7645 55.0266 92.7098 50.6813 87.6285 47.6297C75.4691 75.8297 48.1738 110.911 33.1598 126.314L33.1645 126.319ZM49.3551 104.273C64.0035 85.7203 75.5254 63.9188 75.5254 48.2672C75.5254 40.0875 69.5676 34.4016 61.8051 30.0563C61.9504 47.0484 55.9691 86.9391 49.3551 104.273ZM52.4535 86.3766C55.1863 68.5781 53.5785 47.0953 50.0863 33.6188C48.1832 26.2687 41.466 17.9953 35.241 15.4078C43.3973 38.1844 50.4004 70.6078 52.4535 86.3812V86.3766ZM46.4254 61.4016C40.0035 44.3625 24.0145 8.8125 0.501953 0C15.8113 16.6266 38.5129 49.5844 46.4254 61.4016Z" fill="#6194FD"/>
</svg>
